PathFileType	4	(X/Y/Z)	C:\Users\Basilio\Documents\Thesis Gigler\squatting_fais\c3dfiles\019\SJ_pre3\markers_experimental.trc
DataRate	CameraRate	NumFrames	NumMarkers	Units	OrigDataRate	OrigDataStartFrame	OrigNumFrames
200.000000	200.000000	4	59	mm	200.000000	1139	1302
Frame#	Time	FHD			RBHD			C7			T10			CLAV			LSHO			LUUPA			LMUPA			LDUPA			LLEP			LMEP			LRAD			LUL			LRFIN			RSHO			RUPA1			RMUPA			RDUPA			RLEP			RMEP			RRAD			RUL			RUFIN			LASI			RASI			USACR			LSACR			RSACR			LTHI1			LTHI2			LTHI3			LTHI4			LLFC			LTIB1			LTIB2			LTIB3			LTIB4			LLMAL			LMMAL			LHEE			LMT1			LMT2			LMT5			RTHI			RTHI2			RTHI3			RTHI4			RLFC			RTIB1			RTIB2			RTIB3			RTIB4			RLMAL			RMMAL			RHEE			RMT1			RMT2			RMT5			LBHD			
		X1	Y1	Z1	X2	Y2	Z2	X3	Y3	Z3	X4	Y4	Z4	X5	Y5	Z5	X6	Y6	Z6	X7	Y7	Z7	X8	Y8	Z8	X9	Y9	Z9	X10	Y10	Z10	X11	Y11	Z11	X12	Y12	Z12	X13	Y13	Z13	X14	Y14	Z14	X15	Y15	Z15	X16	Y16	Z16	X17	Y17	Z17	X18	Y18	Z18	X19	Y19	Z19	X20	Y20	Z20	X21	Y21	Z21	X22	Y22	Z22	X23	Y23	Z23	X24	Y24	Z24	X25	Y25	Z25	X26	Y26	Z26	X27	Y27	Z27	X28	Y28	Z28	X29	Y29	Z29	X30	Y30	Z30	X31	Y31	Z31	X32	Y32	Z32	X33	Y33	Z33	X34	Y34	Z34	X35	Y35	Z35	X36	Y36	Z36	X37	Y37	Z37	X38	Y38	Z38	X39	Y39	Z39	X40	Y40	Z40	X41	Y41	Z41	X42	Y42	Z42	X43	Y43	Z43	X44	Y44	Z44	X45	Y45	Z45	X46	Y46	Z46	X47	Y47	Z47	X48	Y48	Z48	X49	Y49	Z49	X50	Y50	Z50	X51	Y51	Z51	X52	Y52	Z52	X53	Y53	Z53	X54	Y54	Z54	X55	Y55	Z55	X56	Y56	Z56	X57	Y57	Z57	X58	Y58	Z58	X59	Y59	Z59	

1140	5.695	-103.6835861206055	1674.18798828125	-841.316345214844	-241.6496124267579	1651.048583984375	-827.4319458007815	-297.0899658203126	1481.444213867188	-881.4589843750002	-368.5095214843751	1192.876098632813	-870.9313964843752	-170.5891723632813	1413.003051757813	-897.4467773437502	-249.9405670166016	1461.452880859375	-1042.018432617188	-288.5781860351563	1329.33837890625	-1147.292236328125	-284.1218566894532	1284.036743164063	-1127.571899414063	-310.6488342285157	1274.771118164063	-1180.578125	-356.8328552246094	1231.164184570313	-1235.8525390625	-418.0162963867189	1219.608154296875	-1204.394287109375	-321.9474792480469	1015.827270507813	-1099.778930664063	-301.8693542480469	994.376892089844	-1160.445068359375	-274.8072814941407	993.053405761719	-1066.91015625	-207.3004455566407	1461.561645507813	-747.0431518554689	-290.2435913085938	1343.5322265625	-606.3285522460939	-262.0263061523438	1302.88623046875	-608.5616455078126	-302.7244262695313	1286.012817382813	-568.1049804687501	-311.8186950683594	1209.57275390625	-538.3953247070314	-373.1135559082032	1213.867065429688	-559.4530029296876	-292.4775085449219	1000.897705078125	-682.6856689453126	-267.1930236816407	973.8645629882815	-630.0010986328126	-243.8231506347657	975.4918212890627	-719.9606933593751	-245.683578491211	982.3819580078127	-1006.068969726563	-218.5019226074219	971.6362915039065	-802.6172485351565	-382.0980529785157	1058.594604492188	-875.7475585937502	-393.7677307128907	1026.89306640625	-903.3027343750002	-384.6599426269532	1026.946533203125	-846.5666503906252	-316.9121093750001	739.3607177734376	-1112.887084960938	-269.9173278808594	670.9692382812501	-1135.821899414063	-223.622543334961	679.8530883789064	-1126.201171875	-286.4553222656251	611.7517089843751	-1131.28564453125	-278.4301452636719	516.7217407226564	-1139.579711914063	-239.9054412841797	371.7069396972657	-1143.772338867188	-309.3979797363282	345.8011474609376	-1190.583740234375	-270.5274963378907	333.7712707519532	-1177.342041015625	-276.5110168457032	249.2529296875001	-1158.842041015625	-368.3697509765626	133.7344207763672	-1194.149169921875	-332.7742919921876	123.1435546875	-1117.8037109375	-422.9991760253907	83.05374145507814	-1141.2978515625	-208.6931610107422	62.83709716796876	-1170.101196289063	-214.7576446533204	66.46253204345705	-1208.94189453125	-267.2706909179688	47.77748489379884	-1252.37939453125	-284.2533569335938	788.4606933593752	-699.8325195312501	-251.4134521484376	733.5350952148439	-699.3887329101564	-222.7011871337891	726.6709594726564	-717.5175781250001	-283.0494689941407	654.2391967773439	-689.0985107421876	-330.0209960937501	493.3626708984376	-708.7229614257814	-275.7430114746094	311.3057556152344	-732.8216552734376	-336.5464477539063	233.5611724853516	-681.4701538085939	-296.3676757812501	231.9230194091797	-704.5385742187501	-293.4392089843751	185.1511840820313	-740.6078491210939	-358.6702270507813	98.08816528320315	-703.6282348632814	-322.8445739746094	97.35660552978518	-771.4366455078127	-394.3461303710939	44.12596511840821	-765.0070800781251	-191.9585571289063	53.14787673950197	-712.0040283203126	-203.5114440917969	58.63095474243165	-667.0968627929689	-257.1695861816407	39.08115005493165	-628.9510498046876	-254.2477722167969	1653.965698242188	-966.683776855469	
1141	5.7	-102.4890899658203	1673.390014648438	-841.2884521484377	-241.0276031494141	1651.211303710938	-827.6746826171877	-297.0679016113282	1481.519287109375	-881.576354980469	-368.5250244140626	1192.843017578125	-871.2279052734377	-170.7773895263672	1412.959838867188	-897.7129516601565	-250.2519989013672	1461.515258789063	-1042.179321289063	-289.1730346679688	1329.761108398438	-1147.679443359375	-284.6873168945313	1284.31787109375	-1128.029907226563	-311.4674377441407	1275.307006835938	-1181.092895507813	-357.6528625488282	1231.898193359375	-1236.3232421875	-418.8709411621095	1220.279296875	-1204.854858398438	-322.5770874023438	1016.657348632813	-1100.205688476563	-302.6896057128907	995.1470336914065	-1160.915771484375	-275.1676025390626	993.716979980469	-1067.406005859375	-207.3598937988282	1461.546997070313	-747.2867431640626	-290.3520202636719	1343.360717773438	-606.5869140625001	-262.1408386230469	1302.777099609375	-608.8295898437501	-302.8317565917969	1285.905883789063	-568.4331665039064	-311.7894287109376	1209.697143554688	-538.6522216796876	-373.1312561035157	1213.737548828125	-559.7617797851564	-292.5256958007813	1000.789794921875	-683.1829223632814	-267.3283386230469	973.7988281250002	-630.4367675781251	-243.7169342041016	975.4902343750002	-720.3639526367189	-245.7623901367188	982.563415527344	-1006.509399414063	-221.7199707031251	966.5452270507815	-778.7565917968752	-382.2402954101563	1058.6015625	-876.0683593750002	-393.6565246582032	1026.939697265625	-903.661071777344	-384.8312988281251	1026.936767578125	-846.9509887695315	-316.7198791503907	739.3494873046876	-1113.15185546875	-269.8247985839844	670.8237915039064	-1135.871215820313	-223.5109252929688	679.6712646484376	-1126.359375	-286.2651062011719	611.5875854492189	-1131.011962890625	-278.7574462890626	516.5760498046876	-1139.420776367188	-239.9722747802735	371.5049438476563	-1143.261474609375	-309.2946777343751	345.5823364257813	-1190.264038085938	-270.4840393066407	333.5124206542969	-1176.914794921875	-276.5995788574219	249.0114135742188	-1158.480834960938	-368.0030822753907	133.3639831542969	-1194.228393554688	-333.1766052246094	122.9453582763672	-1117.611328125	-416.0984802246095	78.68686676025392	-1138.727783203125	-207.5836944580079	63.1997756958008	-1168.697143554688	-212.9848175048829	66.51137542724611	-1207.1533203125	-265.8559875488282	48.04281234741212	-1251.505859375	-284.3299255371094	788.2525634765627	-700.2188720703126	-251.6741027832032	733.5180053710939	-699.7722167968751	-223.0104217529297	726.6305541992189	-717.9160766601564	-283.3628234863282	654.2235717773439	-689.4926757812501	-330.7358398437501	493.5132446289064	-709.0112915039064	-275.9632568359376	311.4450378417969	-732.9469604492189	-336.7076110839844	233.5435791015626	-681.5999145507814	-296.5490112304688	231.9489288330079	-704.6642456054689	-293.5082702636719	185.1204528808594	-740.6631469726564	-358.7409362792969	98.10274505615237	-703.6519165039064	-322.8015136718751	97.35119628906253	-771.4556884765627	-394.580291748047	44.38735961914063	-764.9003295898439	-191.9709014892578	53.19779586791994	-711.9967651367189	-203.5046691894532	58.66731643676759	-667.0859985351564	-257.1509704589844	39.08953475952149	-628.9624633789064	-253.3518829345704	1654.143310546875	-966.8894653320315	
1142	5.705	-101.9674530029297	1672.935180664063	-841.6030273437502	-240.4567260742188	1651.539184570313	-827.9595336914065	-297.2055053710938	1481.614501953125	-881.7633056640627	-368.7451171875001	1192.877685546875	-871.577575683594	-171.0214996337891	1412.881103515625	-898.0284423828127	-250.4503479003907	1461.555541992188	-1042.348266601563	-289.7550354003907	1330.08056640625	-1148.043701171875	-286.0158691406251	1284.415893554688	-1127.917846679688	-312.0905761718751	1275.746459960938	-1181.51953125	-358.4452209472657	1232.5517578125	-1236.903442382813	-419.7081604003907	1220.951416015625	-1205.36376953125	-323.0400390625001	1017.387573242188	-1100.656005859375	-303.4212646484376	995.731140136719	-1161.434814453125	-275.7026672363282	994.3751220703127	-1068.036254882813	-207.8598785400391	1461.4169921875	-747.6027221679689	-290.5298156738282	1343.23828125	-606.9136962890626	-262.2803039550782	1302.5986328125	-609.1498413085939	-302.9154052734376	1285.778686523438	-568.7375488281251	-311.4811096191407	1210.661376953125	-539.1642456054689	-373.2139282226563	1213.630859375	-560.0587158203126	-292.6382751464844	1000.702514648438	-683.6030273437501	-267.3735351562501	973.598083496094	-630.8512573242189	-243.6269531250001	975.398864746094	-720.7784423828126	-245.7328796386719	982.7349853515627	-1007.017700195313	-221.8586425781251	966.4365844726565	-779.047546386719	-382.2501525878907	1058.62451171875	-876.4937744140627	-393.8752441406251	1026.896240234375	-904.0870361328127	-385.106658935547	1027.0361328125	-847.3688964843752	-316.5114135742188	739.2773437500001	-1113.375854492188	-269.8250122070313	670.5899047851564	-1135.891357421875	-223.5928955078126	679.4356079101564	-1126.455322265625	-286.3695373535157	611.4134521484376	-1130.8759765625	-279.1224365234376	516.4014282226564	-1139.173583984375	-240.1932678222657	371.1830749511719	-1142.77197265625	-309.3257751464844	345.2938842773438	-1190.085693359375	-270.5551452636719	333.1861267089844	-1176.49072265625	-276.6965637207032	248.7563018798829	-1157.903686523438	-367.6271972656251	132.9337615966797	-1194.360229492188	-333.4614562988282	122.7548217773438	-1117.310546875	-422.8970947265626	81.23278045654298	-1142.691040039063	-207.1371765136719	63.90416717529298	-1167.176635742188	-212.3184814453126	67.37219238281251	-1205.711059570313	-264.2271728515626	48.15486907958986	-1250.5615234375	-284.5528564453126	788.2424926757815	-700.7563476562501	-251.9968566894532	733.4862060546876	-700.2567749023439	-223.1667938232422	726.3745117187501	-718.4364013671876	-283.7378845214844	654.2069091796876	-689.9192504882814	-330.9488220214844	493.4165039062501	-709.3058471679689	-276.1714782714844	311.4951782226563	-733.1280517578126	-337.6329345703126	234.0401611328126	-682.1963500976564	-296.7760314941407	232.0245056152344	-704.8275146484376	-293.6033630371094	185.2129516601563	-740.7448120117189	-358.7120666503907	98.08972930908206	-703.7294311523439	-322.7312622070313	97.31610870361331	-771.503601074219	-394.5518493652345	44.35411071777344	-764.9163818359376	-191.9325866699219	53.17114639282228	-711.9597778320314	-203.5620880126954	58.62769699096681	-667.1212158203126	-257.1723632812501	39.06561279296876	-628.9730224609376	-253.1579284667969	1654.470092773438	-967.2946777343752	
1143	5.71	-101.2361907958985	1672.284301757813	-841.889831542969	-239.8931732177735	1651.645874023438	-828.3107910156252	-297.3869018554688	1481.703002929688	-882.0422973632815	-368.8255004882813	1192.811767578125	-872.0596313476565	-171.181640625	1412.79638671875	-898.278259277344	-250.8227844238282	1461.630493164063	-1042.64990234375	-290.3371276855469	1330.392822265625	-1148.481689453125	-286.2363586425782	1284.973266601563	-1128.97802734375	-312.6297912597657	1276.228393554688	-1182.016479492188	-359.1859436035157	1233.295043945313	-1237.499755859375	-420.5677185058595	1221.625244140625	-1205.892456054688	-323.4805603027344	1018.083068847656	-1101.093994140625	-304.1420593261719	996.4735107421877	-1161.9306640625	-276.2314453125001	994.9725341796877	-1068.689819335938	-207.8816986083985	1461.363647460938	-747.8547973632814	-290.7084045410157	1343.022216796875	-607.3051147460939	-262.5016479492188	1302.445434570313	-609.6027221679689	-303.0097351074219	1285.650024414063	-569.1268310546876	-311.5925292968751	1210.465087890625	-539.6387939453126	-373.4740600585938	1213.498901367188	-560.4641723632814	-292.9023437500001	1000.638854980469	-684.2128906250001	-267.4932556152344	973.4868164062502	-631.3026733398439	-243.5337219238282	975.4370727539065	-721.2010498046876	-245.6092987060547	982.9163818359377	-1007.5498046875	-221.9983673095704	966.3273925781252	-779.335388183594	-382.1488342285157	1058.604858398438	-877.0093383789065	-393.6643676757814	1026.961669921875	-904.542907714844	-385.423797607422	1027.078247070313	-847.961608886719	-316.3347778320313	739.1563110351564	-1113.64013671875	-269.7497253417969	670.1702880859376	-1135.89306640625	-223.5579681396485	678.9860229492189	-1126.435913085938	-286.3363037109376	611.1737060546876	-1130.47900390625	-279.6815795898438	516.1279296875001	-1139.036987304688	-240.542953491211	370.8887329101563	-1142.180053710938	-309.6272277832032	345.2407226562501	-1189.4580078125	-270.6156005859376	332.8074035644532	-1175.986328125	-276.8290100097657	248.3372955322266	-1157.34619140625	-367.2300109863282	132.3240051269532	-1194.4716796875	-333.6534729003907	122.4904937744141	-1116.97412109375	-415.6953735351564	76.68804168701173	-1140.087280273438	-206.4116210937501	64.43942260742189	-1165.601318359375	-211.229721069336	67.78501129150392	-1204.216552734375	-262.8011779785157	48.32474899291994	-1249.542236328125	-284.8951721191407	788.313415527344	-701.3709106445314	-252.3072357177735	733.4711303710939	-700.7280883789064	-223.4861602783204	726.3540649414064	-718.8602905273439	-284.1999511718751	654.2503662109376	-690.4157104492189	-331.3237609863282	493.3931579589845	-709.6461181640626	-276.4484558105469	311.5379638671876	-733.3070068359376	-337.8537902832032	234.0457000732422	-682.3153686523439	-296.9221801757813	232.0664825439454	-704.9653930664064	-293.6517944335938	185.2154541015625	-740.8283081054689	-358.7790222167969	98.05612945556643	-703.7639770507814	-322.7564392089844	97.28686523437503	-771.5101318359377	-394.3672180175782	44.17055892944337	-764.9976196289064	-191.9636383056641	53.16096115112306	-712.0080566406251	-203.5597381591797	58.630184173584	-667.1002807617189	-257.1330566406251	39.07916641235352	-628.9658203125001	-252.6547088623047	1654.748657226563	-967.6405029296877	
